v -181.9835052 -1.713633537e-005 43.39334488
vn -0.3078996837 -0.8713873029 -0.3819449544
v -181.9835358 -1.713633537e-005 93.39334869
vn -0.1669952124 -0.9748724103 0.1474326402
v -181.9835052 9.999982834 43.39334488
vn -0.1816059202 0.8450452089 -0.5029093623
v -181.9835358 9.999982834 93.39334869
vn -0.0909864828 0.9576467276 0.2731926739
v -101.9835129 -1.02352351e-005 43.39335251
vn -0.1834287792 -0.9829784036 -0.01035969146
v -101.9835129 9.99998951 43.39335251
vn -0.1718011647 0.9409142733 -0.2918299139
v -101.9835129 -1.02352351e-005 13.39334965
vn -0.248433575 -0.9271757007 0.2804031968
v -101.9835129 9.99998951 13.39334965
vn -0.04679165035 0.992371738 0.1140565127
v -181.9835052 -1.713633537e-005 13.39334106
vn -0.9475002885 -0.3091347516 -0.08172434568
v -181.9835052 9.999982834 13.39334106
vn -0.424479723 0.7739351392 0.4699376225
v -181.9835052 -1.713633537e-005 3.39334774
vn 0.1462845206 -0.833337307 -0.5330569744
v -181.9835052 9.999982834 3.39334774
vn -0.5459933281 0.8377352357 -0.009538581595
v -91.98351288 -9.145587683e-006 3.393356562
vn 0.2949051261 -0.9373319149 -0.1855798215
v -91.98351288 9.999991417 3.393356562
vn 0.2245380431 0.9219126105 -0.3156894147
v -91.98351288 -9.145587683e-006 53.39335251
vn 0.4637243748 -0.8859738708 0.003170346376
v -91.98353577 9.999991417 53.39335251
vn 0.4205151796 0.9030045867 -0.08803258836
v -171.9835052 -1.640990376e-005 53.39334488
vn 0.4025662541 -0.8867160678 0.2273214608
v -171.9835358 9.999983788 53.39334488
vn 0.3371787667 0.9174573421 0.2111457884
v -171.9835358 -1.640990376e-005 83.39334106
vn 0.2657925785 -0.8928693533 -0.3635087609
v -171.9835358 9.999983788 83.39334106
vn 0.301040709 0.8569228053 -0.4183990359
v -91.98353577 -9.145587683e-006 83.39334869
vn 0.9475004077 -0.3091345429 0.08172432333
v -91.98353577 9.999991417 83.39334869
vn 0.4137507379 0.7816867828 -0.4666648507
v -91.98353577 -9.145587683e-006 93.39335632
vn -0.146284014 -0.833337605 0.5330566764
v -91.98353577 9.999991417 93.39335632
vn 0.545994401 0.8377345204 0.009539179504
v -91.98353577 -9.145587683e-006 73.39334869
vn 0.08659659326 -0.7044506073 0.7044503689
v -91.98353577 -9.145587683e-006 63.39335251
vn 0.9356361032 -0.2495847493 -0.2495847493
v -91.98353577 9.999991417 73.39334869
vn 0.9356361032 0.2495849729 0.2495845407
v -91.98353577 9.999991417 63.39335251
vn 0.08659658581 0.7044505477 -0.7044504285
v -161.9835358 -1.532025635e-005 73.39334869
vn -0.9356361628 -0.2495846003 0.2495845556
v -161.9835358 9.999984741 73.39334869
vn -0.08659670502 0.7044505477 0.7044504881
v -161.9835358 -1.532025635e-005 63.39334488
vn -0.08659645915 -0.7044505477 -0.7044504881
v -161.9835358 9.999984741 63.39334488
vn -0.9356361032 0.2495845705 -0.2495849431
v -181.9835052 -1.713633537e-005 23.39334106
vn -0.08659647405 -0.7044506073 -0.7044503689
v -181.9835052 -1.713633537e-005 33.39334488
vn -0.9356361628 -0.2495848238 0.2495845407
v -181.9835052 9.999982834 23.39334106
vn -0.9356360435 0.2495849878 -0.2495847046
v -181.9835052 9.999982834 33.39334488
vn -0.08659670502 0.7044506073 0.7044503689
v -111.9835129 -1.09616667e-005 23.39334679
vn 0.9356361032 -0.249584794 -0.2495847195
v -111.9835129 9.99998951 23.39334679
vn 0.08659658581 0.7044506669 -0.7044503689
v -111.9835129 -1.09616667e-005 33.39335251
vn 0.08659660071 -0.7044506073 0.7044503689
v -111.9835129 9.99998951 33.39335251
vn 0.9356360435 0.2495850176 0.2495847195
v 8.016492844 -4.284083843e-007 93.39336395
vn -0.3531918824 -0.9347053766 -0.03976631537
v 8.016504288 -4.284083843e-007 3.393365145
vn -0.09828159958 -0.9593021274 -0.2647265196
v 8.016492844 10 93.39336395
vn 0.440888375 0.8690777421 -0.2243240327
v 8.016504288 10 3.393365145
vn 0.02273634635 0.916870594 -0.3985365331
v -1.9835186 -1.518055797e-006 93.39336395
vn -0.3650441766 -0.7542670965 0.5457324386
v -1.9835186 9.999999046 93.39336395
vn 0.1478839815 0.3473480642 0.926001966
v -1.9835186 -1.518055797e-006 13.39335918
vn 0.02519596182 -0.9040414095 0.4267016649
v -1.9835186 9.999999046 13.39335918
vn 0.05817595869 0.7309114337 0.679988265
v -71.98351288 -7.329508662e-006 13.39334965
vn 0.3114079237 -0.8750669956 0.3705170453
v -71.98351288 9.999992371 13.39334965
vn 0.1431618929 0.967613399 0.2079157531
v -71.98351288 -7.329508662e-006 93.39335632
vn -0.1478839964 -0.3473481834 0.9260019064
v -71.98351288 9.999992371 93.39335632
vn 0.3650443852 0.7542669773 0.5457324982
v -81.98351288 -8.419156075e-006 93.39335632
vn -0.4408885837 -0.8690775037 -0.224324584
v -81.98351288 9.999991417 93.39335632
vn 0.3531917632 0.934705317 -0.03976882249
v -81.98351288 -8.419156075e-006 3.393356562
vn -0.1591734141 -0.9376118183 -0.3091081977
v -81.98351288 9.999991417 3.393356562
vn -0.346298635 0.9046624303 -0.2483207434
v -11.98351765 -2.244487405e-006 93.39336395
vn 0.04164196923 -0.7969079018 0.6026638746
v -11.98351765 -2.244487405e-006 23.39335442
vn 0.4293924868 -0.8929013014 -0.1354597807
v -11.98351765 9.999998093 93.39336395
vn 0.5073115826 0.8533076644 -0.1204201505
v -11.98351765 9.999998093 23.39335442
vn -0.02845193446 0.936237812 -0.3502130806
v -21.98351669 -2.970919013e-006 93.39336395
vn -0.4160490632 -0.7566609979 0.5043483377
v -21.98351669 9.999997139 93.39336395
vn 0.0843057856 0.2987854481 0.95058918
v -21.9834938 -2.970919013e-006 33.39336014
vn -0.07755235583 -0.9418075681 0.3270843625
v -21.9834938 9.999997139 33.39336014
vn 0.07719986886 0.7451361418 0.6624290943
v -51.98351669 -5.876645446e-006 33.39335632
vn 0.2871263027 -0.9049382806 0.3140782416
v -51.98351669 9.999994278 33.39335632
vn 0.133265689 0.9871945977 0.08767614514
v -51.98351669 -5.876645446e-006 93.39335632
vn 0.6216924787 -0.2024772614 0.7566382289
v -51.98351669 9.999994278 93.39335632
vn 0.6357457638 0.5849213004 0.5036808848
v -61.98351669 -6.603077054e-006 93.39335632
vn 0.07999976724 -0.9743857384 0.2101724744
v -61.98351669 9.999993324 93.39335632
vn -0.0416411832 0.7969074845 0.6026645303
v -61.98351669 -6.603077054e-006 23.3933506
vn -0.2327055782 -0.9360212088 -0.264031142
v -61.98351669 9.999993324 23.3933506
vn -0.027205538 0.9975610375 -0.06427894533
v -31.98351669 -4.060566425e-006 93.39336395
vn 0.129515484 -0.9723216295 0.1944642961
v -31.98351669 -4.060566425e-006 43.39335632
vn 0.9362099171 -0.3446165025 -0.06892329454
v -31.98351669 9.999996185 93.39336395
vn 0.9362099171 0.3446165025 0.06892330945
v -31.98351669 9.999996185 43.39335632
vn 0.129515484 0.9723216295 -0.1944643408
v -41.98351669 -4.786998034e-006 93.39335632
vn -0.9362099171 -0.3446165323 0.06892328709
v -41.98351669 9.999995232 93.39335632
vn -0.1295155436 0.9723216295 0.1944642812
v -41.98351669 -4.786998034e-006 43.39335632
vn -0.1295155138 -0.9723216295 -0.1944642961
v -41.98351669 9.999995232 43.39335632
vn -0.9362099767 0.3446164131 -0.06892329454
v 108.0164719 8.288770914e-006 93.39337158
vn 0.5167666674 -0.6073880196 0.6033506393
v 108.0164795 8.288770914e-006 83.39337158
vn 0.9322255254 -0.3092415333 -0.1879500747
v 108.0164719 10.00000858 93.39337158
vn 0.7423675656 0.522318244 0.4196117222
v 108.0164719 10.00000858 83.39337158
vn 0.755908668 0.2629792094 -0.5995365381
v 18.01647949 2.980232239e-007 93.39336395
vn -0.7039980292 -0.7050079107 0.08573564142
v 18.01647949 10 93.39336395
vn -0.02715046145 0.9342383146 0.3556145132
v 18.01647949 2.980232239e-007 83.39336395
vn -0.7559084296 -0.2629792392 -0.5995367765
v 18.01647949 10 83.39336395
vn -0.9322254658 0.3092415929 -0.1879504621
v 58.01649094 3.930181265e-006 83.39336395
vn -0.3725146651 -0.7766768932 -0.5079427958
v 58.01649094 10.00000381 83.39336395
vn -0.5106654167 0.5601108074 -0.6523010731
v 58.01650238 3.930181265e-006 3.393368244
vn -0.6275140047 -0.4686484635 -0.6217674613
v 58.01650238 10.00000381 3.393368244
vn -0.6082658768 0.4451347291 -0.6571664214
v 68.01648712 4.656612873e-006 3.393371105
vn 0.009435840882 -0.6812885404 -0.7319541574
v 68.01648712 10.00000477 3.393371105
vn -0.2295020223 0.5660956502 -0.7917477489
v 68.01647949 4.656612873e-006 83.39336395
vn 0.7852813005 -0.5924070477 -0.1799642444
v 68.01647949 10.00000477 83.39336395
vn 0.1719135344 0.9192816615 -0.354071945
v 48.01647949 2.840533853e-006 73.39336395
vn 0.02650551684 -0.9740893245 0.2246050984
v 48.01649094 2.840533853e-006 3.393368244
vn 0.2245677263 -0.8973086476 -0.3800085485
v 48.01647949 10.00000286 73.39336395
vn 0.2699201405 0.9608440995 0.06262348592
v 48.01649094 10.00000286 3.393368244
vn 0.255476594 0.5884942412 -0.7670764327
v 18.01647949 2.980232239e-007 73.39336395
vn -0.7069749236 -0.6977089047 0.1157098264
v 18.01647949 10 73.39336395
vn -0.5662286282 0.8242372274 0.004261399154
v 18.01647949 2.980232239e-007 63.39336014
vn -0.7704127431 -0.5288407207 -0.3560781479
v 18.01647949 10 63.39336014
vn -0.9659634829 0.1806952804 -0.1851046979
v 38.01647949 2.114102244e-006 63.39336395
vn -0.4906590879 -0.777361095 -0.3936538994
v 38.01647949 10.00000191 63.39336395
vn -0.7061082721 0.6606621146 -0.2548266649
v 38.01649094 2.114102244e-006 3.393368244
vn -0.4631699026 -0.3400734961 -0.8184275627
v 38.01649094 10.00000191 3.393368244
vn -0.6102452278 0.5151106715 -0.6018818617
v 28.01649094 1.387670636e-006 53.39336395
vn 0.1295166314 -0.9723214507 0.1944643557
v 28.01650238 1.387670636e-006 3.393365145
vn 0.9362098575 -0.3446167707 -0.06892326474
v 28.01649094 10.00000191 53.39336395
vn 0.9362099171 0.3446165323 0.06892339885
v 28.01650238 10.00000191 3.393365145
vn 0.1295169145 0.9723214507 -0.1944642812
v 18.01647949 2.980232239e-007 53.39336395
vn -0.9362099171 -0.3446165323 0.06892318279
v 18.01647949 10 53.39336395
vn -0.1295167506 0.9723214507 0.1944643259
v 18.01647949 2.980232239e-007 3.393365145
vn -0.1295169145 -0.9723214507 -0.1944642961
v 18.01647949 10 3.393365145
vn -0.9362098575 0.3446167707 -0.06892347336
v 108.0164795 8.288770914e-006 73.39337158
vn 0.3438676298 -0.8178939819 0.4613073766
v 108.0164795 8.288770914e-006 63.39336777
vn 0.9645281434 -0.2076430172 0.1630024016
v 108.0164795 10.00000858 73.39337158
vn 0.7069749236 0.6977089643 0.1157091185
v 108.0164795 10.00000858 63.39336777
vn 0.7964007854 0.5861331224 -0.1489755064
v 78.01647949 5.746260285e-006 73.39336395
vn -0.3600675762 -0.9218068123 0.1436090916
v 78.01647949 10.00000572 73.39336395
vn 0.4058430493 0.8467699885 0.3439069688
v 78.01648712 5.746260285e-006 3.393371105
vn -0.2554753721 -0.5884959698 -0.767075479
v 78.01648712 10.00000572 3.393371105
vn -0.5767667294 0.8168587089 -0.009057600051
v 88.01644897 6.472691894e-006 3.393371105
vn 0.4619101882 -0.7410437465 -0.4873326719
v 88.01644897 10.00000668 3.393371105
vn -0.05979865044 0.277327776 -0.958912611
v 88.01644897 6.472691894e-006 63.39336777
vn 0.835600853 -0.547673583 0.04271815345
v 88.01644897 10.00000668 63.39336777
vn 0.7220845819 0.6662807465 -0.1861823648
v 108.0164795 8.288770914e-006 53.39336777
vn 0.1295155436 -0.9723216295 0.1944643408
v 108.0164871 8.288770914e-006 3.393373966
vn 0.9362099767 -0.3446164131 -0.06892320514
v 108.0164795 10.00000858 53.39336777
vn 0.9362099171 0.3446165323 0.0689234063
v 108.0164871 10.00000858 3.393373966
vn 0.1295155585 0.9723216295 -0.1944644004
v 98.01647949 7.199123502e-006 53.39336777
vn -0.9362099171 -0.3446165323 0.06892318279
v 98.01647949 10.00000763 53.39336777
vn -0.1295156032 0.9723216295 0.1944642812
v 98.01648712 7.199123502e-006 3.393373966
vn -0.1295155585 -0.9723216295 -0.1944644004
v 98.01648712 10.00000763 3.393373966
vn -0.9362099171 0.3446165025 -0.0689234212
v 208.0164795 1.700595021e-005 93.39338684
vn 0.2647272348 -0.9593019485 -0.09828154743
v 208.0164795 1.700595021e-005 3.393382549
vn 0.3091082871 -0.9376118183 -0.1591734141
v 208.0164795 10.00001717 93.39338684
vn 0.3985365629 0.916870594 0.02273645252
v 208.0164795 10.00001717 3.393382549
vn 0.2483206689 0.9046624303 -0.346298635
v 118.016449 9.015202522e-006 93.39337158
vn 0.03976805881 -0.934705317 -0.3531919122
v 118.016449 10.00000954 93.39337158
vn 0.2243241519 0.8690776229 0.4408886135
v 118.016449 9.015202522e-006 83.39337158
vn -0.5457322598 -0.7542670369 -0.3650444746
v 118.016449 10.00000954 83.39337158
vn -0.926001966 0.3473479748 0.147884056
v 198.0164795 1.62795186e-005 83.39337921
vn -0.4267016351 -0.9040414095 0.02519581839
v 198.0164795 10.00001621 83.39337921
vn -0.6799883246 0.7309113741 0.05817593262
v 198.0164795 1.62795186e-005 13.39337635
vn -0.3705169857 -0.8750669956 0.3114079833
v 198.0164795 10.00001621 13.39337635
vn -0.2079159319 0.9676133394 0.1431619525
v 118.0164566 9.015202522e-006 13.39336777
vn -0.9260017872 -0.3473484218 -0.1478842497
v 118.016449 10.00000954 13.39336777
vn -0.5457325578 0.7542668581 0.3650444746
v 118.0164566 9.015202522e-006 3.393373966
vn 0.2243245393 -0.8690774441 -0.4408887327
v 118.0164566 10.00000954 3.393373966
vn 0.03976887465 0.9347052574 0.3531918526
v 188.0164795 1.518987119e-005 73.39337921
vn -0.07224280387 -0.9966510534 0.03831007704
v 188.0164795 1.518987119e-005 23.39337349
vn 0.1726187915 -0.9060454965 -0.3863732517
v 188.0164795 10.00001526 73.39337921
vn 0.2648334801 0.9408305883 -0.2114262879
v 188.0164795 10.00001526 23.39337349
vn 0.06427855045 0.9975610971 -0.02720609866
v 118.016449 9.015202522e-006 73.39337158
vn -0.6026640534 -0.7969077826 0.04164195061
v 118.016449 10.00000954 73.39337158
vn 0.1204188764 0.8533081412 0.5073110461
v 118.016449 9.015202522e-006 63.39336777
vn -0.5043480992 -0.7566616535 -0.4160483181
v 118.016449 10.00000954 63.39336777
vn -0.9505889416 0.2987858653 0.08430730551
v 178.016449 1.446343958e-005 63.3933754
vn -0.3902851641 -0.8873926401 -0.2453808337
v 178.016449 10.00001431 63.3933754
vn -0.6624287367 0.7451363802 0.07720052451
v 178.016449 1.446343958e-005 33.3933754
vn -0.3140775561 -0.9049385786 0.2871261537
v 178.016449 10.00001431 33.3933754
vn -0.08767598867 0.9871945977 0.1332658678
v 118.016449 9.015202522e-006 33.39337158
vn -0.7566386461 -0.2024773359 0.6216919422
v 118.016449 10.00000954 33.39337158
vn -0.5036808848 0.584921658 0.6357454062
v 118.016449 9.015202522e-006 23.39336777
vn -0.2101728022 -0.9743857384 0.07999914885
v 118.016449 10.00000954 23.39336777
vn -0.6026643515 0.7969075441 -0.04164168611
v 168.0164795 1.337379217e-005 53.3933754
vn 0.1189246252 -0.7020885944 0.7020887136
v 168.0164795 1.337379217e-005 43.3933754
vn 0.9317238331 -0.2567984462 -0.2567981482
v 168.0164795 10.00001335 53.3933754
vn 0.9317237139 0.256798476 0.2567985058
v 168.0164795 10.00001335 43.3933754
vn 0.1189246401 0.7020887136 -0.7020885944
v 118.016449 9.015202522e-006 53.39337158
vn -0.9317237139 -0.256798476 0.256798476
v 118.016449 10.00000954 53.39337158
vn -0.1189247295 0.702088654 0.702088654
v 118.016449 9.015202522e-006 43.39337158
vn -0.118924506 -0.702088654 -0.702088654
v 118.016449 10.00000954 43.39337158
vn -0.9317237139 0.256798476 -0.256798476
# mm_gid 0
g mmGroup0
f 1//1 2//2 3//3 
f 3//3 2//2 4//4 
f 5//5 1//1 6//6 
f 6//6 1//1 3//3 
f 7//7 5//5 8//8 
f 8//8 5//5 6//6 
f 9//9 7//7 10//10 
f 10//10 7//7 8//8 
f 11//11 9//9 12//12 
f 12//12 9//9 10//10 
f 13//13 11//11 14//14 
f 14//14 11//11 12//12 
f 15//15 13//13 16//16 
f 16//16 13//13 14//14 
f 17//17 15//15 18//18 
f 18//18 15//15 16//16 
f 19//19 17//17 20//20 
f 20//20 17//17 18//18 
f 21//21 19//19 22//22 
f 22//22 19//19 20//20 
f 23//23 21//21 24//24 
f 24//24 21//21 22//22 
f 2//2 23//23 4//4 
f 4//4 23//23 24//24 
f 21//21 23//23 19//19 
f 19//19 23//23 2//2 
f 19//19 2//2 17//17 
f 17//17 2//2 1//1 
f 17//17 1//1 15//15 
f 15//15 1//1 5//5 
f 15//15 5//5 13//13 
f 13//13 5//5 7//7 
f 13//13 7//7 11//11 
f 11//11 7//7 9//9 
f 12//12 10//10 14//14 
f 14//14 10//10 8//8 
f 14//14 8//8 16//16 
f 16//16 8//8 6//6 
f 16//16 6//6 18//18 
f 18//18 6//6 3//3 
f 18//18 3//3 20//20 
f 20//20 3//3 4//4 
f 20//20 4//4 22//22 
f 22//22 4//4 24//24 
f 25//25 26//26 27//27 
f 27//27 26//26 28//28 
f 29//29 25//25 30//30 
f 30//30 25//25 27//27 
f 31//31 29//29 32//32 
f 32//32 29//29 30//30 
f 26//26 31//31 28//28 
f 28//28 31//31 32//32 
f 29//29 31//31 25//25 
f 25//25 31//31 26//26 
f 32//32 30//30 28//28 
f 28//28 30//30 27//27 
f 33//33 34//34 35//35 
f 35//35 34//34 36//36 
f 37//37 33//33 38//38 
f 38//38 33//33 35//35 
f 39//39 37//37 40//40 
f 40//40 37//37 38//38 
f 34//34 39//39 36//36 
f 36//36 39//39 40//40 
f 37//37 39//39 33//33 
f 33//33 39//39 34//34 
f 40//40 38//38 36//36 
f 36//36 38//38 35//35 
f 41//41 42//42 43//43 
f 43//43 42//42 44//44 
f 45//45 41//41 46//46 
f 46//46 41//41 43//43 
f 47//47 45//45 48//48 
f 48//48 45//45 46//46 
f 49//49 47//47 50//50 
f 50//50 47//47 48//48 
f 51//51 49//49 52//52 
f 52//52 49//49 50//50 
f 53//53 51//51 54//54 
f 54//54 51//51 52//52 
f 55//55 53//53 56//56 
f 56//56 53//53 54//54 
f 42//42 55//55 44//44 
f 44//44 55//55 56//56 
f 51//51 53//53 49//49 
f 49//49 53//53 55//55 
f 49//49 55//55 47//47 
f 47//47 55//55 42//42 
f 47//47 42//42 45//45 
f 45//45 42//42 41//41 
f 46//46 43//43 48//48 
f 48//48 43//43 44//44 
f 48//48 44//44 50//50 
f 50//50 44//44 56//56 
f 50//50 56//56 52//52 
f 52//52 56//56 54//54 
f 57//57 58//58 59//59 
f 59//59 58//58 60//60 
f 61//61 57//57 62//62 
f 62//62 57//57 59//59 
f 63//63 61//61 64//64 
f 64//64 61//61 62//62 
f 65//65 63//63 66//66 
f 66//66 63//63 64//64 
f 67//67 65//65 68//68 
f 68//68 65//65 66//66 
f 69//69 67//67 70//70 
f 70//70 67//67 68//68 
f 71//71 69//69 72//72 
f 72//72 69//69 70//70 
f 58//58 71//71 60//60 
f 60//60 71//71 72//72 
f 67//67 69//69 65//65 
f 65//65 69//69 71//71 
f 65//65 71//71 63//63 
f 63//63 71//71 58//58 
f 63//63 58//58 61//61 
f 61//61 58//58 57//57 
f 62//62 59//59 64//64 
f 64//64 59//59 60//60 
f 64//64 60//60 66//66 
f 66//66 60//60 72//72 
f 66//66 72//72 68//68 
f 68//68 72//72 70//70 
f 73//73 74//74 75//75 
f 75//75 74//74 76//76 
f 77//77 73//73 78//78 
f 78//78 73//73 75//75 
f 79//79 77//77 80//80 
f 80//80 77//77 78//78 
f 74//74 79//79 76//76 
f 76//76 79//79 80//80 
f 77//77 79//79 73//73 
f 73//73 79//79 74//74 
f 80//80 78//78 76//76 
f 76//76 78//78 75//75 
f 81//81 82//82 83//83 
f 83//83 82//82 84//84 
f 85//85 81//81 86//86 
f 86//86 81//81 83//83 
f 87//87 85//85 88//88 
f 88//88 85//85 86//86 
f 89//89 87//87 90//90 
f 90//90 87//87 88//88 
f 91//91 89//89 92//92 
f 92//92 89//89 90//90 
f 93//93 91//91 94//94 
f 94//94 91//91 92//92 
f 95//95 93//93 96//96 
f 96//96 93//93 94//94 
f 82//82 95//95 84//84 
f 84//84 95//95 96//96 
f 81//81 85//85 89//89 
f 89//89 85//85 87//87 
f 82//82 81//81 95//95 
f 95//95 81//81 89//89 
f 95//95 89//89 93//93 
f 93//93 89//89 91//91 
f 86//86 83//83 96//96 
f 96//96 83//83 84//84 
f 88//88 86//86 90//90 
f 90//90 86//86 96//96 
f 90//90 96//96 92//92 
f 92//92 96//96 94//94 
f 97//97 98//98 99//99 
f 99//99 98//98 100//100 
f 101//101 97//97 102//102 
f 102//102 97//97 99//99 
f 103//103 101//101 104//104 
f 104//104 101//101 102//102 
f 105//105 103//103 106//106 
f 106//106 103//103 104//104 
f 107//107 105//105 108//108 
f 108//108 105//105 106//106 
f 98//98 107//107 100//100 
f 100//100 107//107 108//108 
f 107//107 98//98 105//105 
f 105//105 98//98 97//97 
f 105//105 97//97 103//103 
f 103//103 97//97 101//101 
f 104//104 102//102 106//106 
f 106//106 102//102 99//99 
f 106//106 99//99 108//108 
f 108//108 99//99 100//100 
f 109//109 110//110 111//111 
f 111//111 110//110 112//112 
f 113//113 109//109 114//114 
f 114//114 109//109 111//111 
f 115//115 113//113 116//116 
f 116//116 113//113 114//114 
f 110//110 115//115 112//112 
f 112//112 115//115 116//116 
f 113//113 115//115 109//109 
f 109//109 115//115 110//110 
f 116//116 114//114 112//112 
f 112//112 114//114 111//111 
f 117//117 118//118 119//119 
f 119//119 118//118 120//120 
f 121//121 117//117 122//122 
f 122//122 117//117 119//119 
f 123//123 121//121 124//124 
f 124//124 121//121 122//122 
f 125//125 123//123 126//126 
f 126//126 123//123 124//124 
f 127//127 125//125 128//128 
f 128//128 125//125 126//126 
f 118//118 127//127 120//120 
f 120//120 127//127 128//128 
f 118//118 117//117 127//127 
f 127//127 117//117 121//121 
f 127//127 121//121 125//125 
f 125//125 121//121 123//123 
f 126//126 124//124 128//128 
f 128//128 124//124 122//122 
f 128//128 122//122 120//120 
f 120//120 122//122 119//119 
f 129//129 130//130 131//131 
f 131//131 130//130 132//132 
f 133//133 129//129 134//134 
f 134//134 129//129 131//131 
f 135//135 133//133 136//136 
f 136//136 133//133 134//134 
f 130//130 135//135 132//132 
f 132//132 135//135 136//136 
f 133//133 135//135 129//129 
f 129//129 135//135 130//130 
f 136//136 134//134 132//132 
f 132//132 134//134 131//131 
f 137//137 138//138 139//139 
f 139//139 138//138 140//140 
f 141//141 137//137 142//142 
f 142//142 137//137 139//139 
f 143//143 141//141 144//144 
f 144//144 141//141 142//142 
f 145//145 143//143 146//146 
f 146//146 143//143 144//144 
f 147//147 145//145 148//148 
f 148//148 145//145 146//146 
f 149//149 147//147 150//150 
f 150//150 147//147 148//148 
f 151//151 149//149 152//152 
f 152//152 149//149 150//150 
f 138//138 151//151 140//140 
f 140//140 151//151 152//152 
f 149//149 151//151 147//147 
f 147//147 151//151 138//138 
f 147//147 138//138 145//145 
f 145//145 138//138 137//137 
f 145//145 137//137 143//143 
f 143//143 137//137 141//141 
f 144//144 142//142 146//146 
f 146//146 142//142 139//139 
f 146//146 139//139 148//148 
f 148//148 139//139 140//140 
f 148//148 140//140 150//150 
f 150//150 140//140 152//152 
f 153//153 154//154 155//155 
f 155//155 154//154 156//156 
f 157//157 153//153 158//158 
f 158//158 153//153 155//155 
f 159//159 157//157 160//160 
f 160//160 157//157 158//158 
f 161//161 159//159 162//162 
f 162//162 159//159 160//160 
f 163//163 161//161 164//164 
f 164//164 161//161 162//162 
f 165//165 163//163 166//166 
f 166//166 163//163 164//164 
f 167//167 165//165 168//168 
f 168//168 165//165 166//166 
f 154//154 167//167 156//156 
f 156//156 167//167 168//168 
f 165//165 167//167 163//163 
f 163//163 167//167 154//154 
f 163//163 154//154 161//161 
f 161//161 154//154 153//153 
f 161//161 153//153 159//159 
f 159//159 153//153 157//157 
f 160//160 158//158 162//162 
f 162//162 158//158 155//155 
f 162//162 155//155 164//164 
f 164//164 155//155 156//156 
f 164//164 156//156 166//166 
f 166//166 156//156 168//168 
f 169//169 170//170 171//171 
f 171//171 170//170 172//172 
f 173//173 169//169 174//174 
f 174//174 169//169 171//171 
f 175//175 173//173 176//176 
f 176//176 173//173 174//174 
f 170//170 175//175 172//172 
f 172//172 175//175 176//176 
f 173//173 175//175 169//169 
f 169//169 175//175 170//170 
f 176//176 174//174 172//172 
f 172//172 174//174 171//171 
